<svg xmlns="http://www.w3.org/2000/svg" viewBox="0 0 1600 520" preserveAspectRatio="xMidYMid slice">
  <defs>
    <linearGradient id="sky" x1="0" y1="0" x2="1" y2="1">
      <stop offset="0" stop-color="#071b46"/><stop offset=".42" stop-color="#123c7a"/><stop offset=".76" stop-color="#5e3eb7"/><stop offset="1" stop-color="#f4a47a"/>
    </linearGradient>
    <linearGradient id="ship" x1="0" x2="1"><stop offset="0" stop-color="#eaf5ff"/><stop offset=".6" stop-color="#bcd7f5"/><stop offset="1" stop-color="#ffffff"/></linearGradient>
    <filter id="blur" x="-20%" y="-20%" width="140%" height="140%"><feGaussianBlur stdDeviation="16"/></filter>
  </defs>
  <rect width="1600" height="520" fill="url(#sky)"/>
  <circle cx="1260" cy="105" r="100" fill="#ffd7a8" opacity=".45" filter="url(#blur)"/>
  <path d="M0 380 C280 330 520 430 820 378 C1080 335 1300 350 1600 315 L1600 520 L0 520 Z" fill="#06132e" opacity=".62"/>
  <path d="M0 402 C280 354 540 448 850 394 C1130 346 1320 386 1600 342 L1600 520 L0 520 Z" fill="#0b3d77" opacity=".6"/>
  <g opacity=".95" transform="translate(610 88)">
    <path d="M35 280 C210 255 455 238 695 250 C787 254 850 244 928 223 C907 278 869 322 820 338 C632 382 258 372 83 322 C60 315 45 302 35 280Z" fill="url(#ship)"/>
    <path d="M112 244 C190 152 311 87 515 93 C654 97 750 144 838 221 C654 213 395 220 112 244Z" fill="#d9ecff"/>
    <path d="M219 164 C327 116 535 104 670 147 C586 133 369 133 219 164Z" fill="#ffffff" opacity=".8"/>
    <g fill="#143d72" opacity=".82">
      <rect x="230" y="166" width="450" height="14" rx="7"/><rect x="180" y="196" width="595" height="13" rx="6"/><rect x="130" y="225" width="720" height="11" rx="5"/>
    </g>
    <g fill="#ffffff" opacity=".95">
      <circle cx="230" cy="201" r="4"/><circle cx="265" cy="201" r="4"/><circle cx="300" cy="201" r="4"/><circle cx="335" cy="201" r="4"/><circle cx="370" cy="201" r="4"/><circle cx="405" cy="201" r="4"/><circle cx="440" cy="201" r="4"/><circle cx="475" cy="201" r="4"/><circle cx="510" cy="201" r="4"/><circle cx="545" cy="201" r="4"/><circle cx="580" cy="201" r="4"/><circle cx="615" cy="201" r="4"/><circle cx="650" cy="201" r="4"/>
      <circle cx="160" cy="228" r="4"/><circle cx="200" cy="228" r="4"/><circle cx="240" cy="228" r="4"/><circle cx="280" cy="228" r="4"/><circle cx="320" cy="228" r="4"/><circle cx="360" cy="228" r="4"/><circle cx="400" cy="228" r="4"/><circle cx="440" cy="228" r="4"/><circle cx="480" cy="228" r="4"/><circle cx="520" cy="228" r="4"/><circle cx="560" cy="228" r="4"/><circle cx="600" cy="228" r="4"/><circle cx="640" cy="228" r="4"/><circle cx="680" cy="228" r="4"/><circle cx="720" cy="228" r="4"/><circle cx="760" cy="228" r="4"/>
    </g>
    <path d="M695 121 L745 84 L774 165 Z" fill="#eef7ff"/>
    <rect x="480" y="49" width="55" height="45" rx="8" fill="#0a234f"/><rect x="550" y="55" width="35" height="38" rx="6" fill="#0a234f"/>
    <path d="M106 295 C279 329 671 341 830 299" fill="none" stroke="#1e5aa8" stroke-width="18" opacity=".45"/>
  </g>
  <rect width="1600" height="520" fill="#06132e" opacity=".35"/>
</svg>
